
<svg xmlns="http://www.w3.org/2000/svg" viewBox="-1.873 0 247.568 161.146">
  <path fill="#FBBD71" d="M 111 41.3 C 105 44.3 102.4 49.9 102.4 65.1 C 102.4 65.1 105.4 62.1 110.2 60.3 C 113.7 59 116.2 57.3 118 56 C 123.2 52.1 124 47.4 124 39.2 C 123.9 39.2 115.7 38.7 111 41.3 Z"/>
  <path fill="#000000" d="M 123.9 58.6 C 123.9 58.6 121.7 61.6 117.4 64.2 C 114.4 65.9 111.8 66.8 108.8 68.5 C 103.6 71.1 102.3 73.7 102.3 77.6 L 102.3 78.9 L 102.3 85.4 L 102.3 86.7 L 102.3 159.3 C 102.3 159.3 110.5 160.2 115.7 157.6 C 122.6 154.1 123.9 150.7 123.9 136 L 123.9 63.4 L 123.9 58.6 Z"/>
  <path fill="#000000" d="M 203.4 99.7 L 244 39.6 C 244 39.6 227.2 36.6 218.5 44.4 C 212.9 49.2 207.3 58.2 207.3 58.2 L 192.6 79.8 C 191.7 81.1 190.9 82 189.6 82 C 188.3 82 187 80.7 186.6 79.8 L 171.9 58.2 C 171.9 58.2 165.9 49.6 160.7 44.4 C 152.1 36.6 135.2 39.6 135.2 39.6 L 174.5 99.6 L 134.3 159.6 C 134.3 159.6 152 161.8 160.7 154 C 166.3 149.2 171.5 141 171.5 141 L 186.2 119.4 C 187.1 118.1 187.9 117.2 189.2 117.2 C 190.5 117.2 191.8 118.5 192.2 119.4 L 206.9 141 C 206.9 141 212.5 149.2 217.7 154 C 226.3 161.8 243.6 159.6 243.6 159.6 L 203.4 99.7 Z"/>
  <g transform="matrix(6.821467876434326, 0, 0, 7.162141799926758, 502.55487060546875, 524.5836791992188)" style="">
    <g>
      <path d="M -73.914 -51.002 L -73.84 -70.608 C -73.84 -70.608 -73.914 -71.91 -73.248 -72.631 C -72.611 -73.321 -70.79 -73.153 -70.79 -73.153 L -60.614 -73.116 C -60.614 -73.116 -60.119 -70.44 -63.086 -70.44 C -65.799 -70.44 -67.838 -70.403 -69.159 -70.402 C -69.753 -70.402 -70.269 -70.475 -70.491 -70.253 C -70.642 -70.102 -70.609 -69.463 -70.609 -69.463 L -70.609 -65.695 C -70.609 -65.695 -70.687 -64.82 -70.531 -64.664 C -70.303 -64.435 -69.593 -64.514 -69.254 -64.512 C -67.938 -64.502 -65.233 -64.516 -62.105 -64.516 C -59.823 -64.516 -60.412 -61.957 -61.987 -61.957 C -64.847 -61.957 -68.242 -61.96 -69.638 -61.931 C -69.981 -61.924 -70.444 -61.973 -70.57 -61.845 C -70.698 -61.715 -70.649 -61.38 -70.651 -61.036 C -70.659 -59.272 -70.647 -54.054 -70.647 -53.094 C -70.647 -50.742 -73.914 -51.002 -73.914 -51.002 Z" style="stroke-width: 1.45871px; stroke-miterlimit: 7.38; stroke-linecap: round;"/>
    </g>
    <g/>
    <g/>
    <g/>
    <g/>
    <g/>
    <g/>
    <g/>
    <g/>
    <g/>
    <g/>
    <g/>
    <g/>
    <g/>
    <g/>
    <g/>
  </g>
  <text style="white-space: pre; fill: rgb(51, 51, 51); font-family: Arial, sans-serif; font-size: 7.5px;" x="73.066" y="101.972"> </text>
  <path style="stroke-linecap: round; stroke-miterlimit: 7.38; stroke-width: 1.45871px;" d="M 154.697 24.355 L 209.564 66.375"/>
</svg>